<svg width="27" height="28" viewBox="0 0 27 28" fill="none" xmlns="http://www.w3.org/2000/svg">
<path d="M8.96 13.04H10.32C14.5867 13.04 16.72 11 16.72 6.92C16.72 4.94667 16.3067 3.52 15.48 2.64C14.6533 1.73333 13.3467 1.28 11.56 1.28C10.4133 1.28 9.54667 1.33333 8.96 1.44V13.04ZM8.28 0.199999L12.76 0.0799985C19.1067 0.0799985 22.28 2.36 22.28 6.92C22.28 8.94667 21.56 10.6 20.12 11.88C18.68 13.16 16.8267 13.8 14.56 13.8H13.64C16.68 14.2 18.76 15.12 19.88 16.56C21.0267 18 21.6 20.1867 21.6 23.12C21.6 24.9333 21.9733 26.04 22.72 26.44C22.9867 26.6 23.3733 26.68 23.88 26.68C24.4133 26.68 25.1333 26.4667 26.04 26.04L26.08 27C24.64 27.6133 23.1733 27.92 21.68 27.92C18.6933 27.92 16.8933 26.8 16.28 24.56C16.0667 23.6267 15.96 22.4667 15.96 21.08C15.96 19.6667 15.8667 18.5867 15.68 17.84C15.52 17.0667 15.2667 16.44 14.92 15.96C14.1467 14.7867 12.6933 14.2 10.56 14.2H8.96V25.68L12 26.04V27H0.72V26.04L3.68 25.72V1.52L0.24 1.04V0.039999C2.48 0.146666 4.49333 0.199999 6.28 0.199999H8.28Z" fill="#224F34"/>
</svg>
